<?xml version="1.0" encoding="UTF-8"?>
<svg width="28px" height="28px" viewBox="0 0 28 28" version="1.1" xmlns="http://www.w3.org/2000/svg" xmlns:xlink="http://www.w3.org/1999/xlink">
    <!-- Generator: Sketch 46.2 (44496) - http://www.bohemiancoding.com/sketch -->
    <title>ic_guanbi</title>
    <desc>Created with Sketch.</desc>
    <defs></defs>
    <g id="Page-1" stroke="none" stroke-width="1" fill="none" fill-rule="evenodd">
        <g id="支付详情" transform="translate(-31.000000, -694.000000)" fill="#333333">
            <path d="M43.0121933,706.455844 L29.0119006,706.455844 C27.9020859,706.455844 27.0121933,707.351275 27.0121933,708.455844 C27.0121933,709.568114 27.9074928,710.455844 29.0119006,710.455844 L43.0121933,710.455844 L43.0121933,724.456137 C43.0121933,725.565952 43.9076238,726.455844 45.0121933,726.455844 C46.1244637,726.455844 47.0121933,725.560545 47.0121933,724.456137 L47.0121933,710.455844 L61.012486,710.455844 C62.1223007,710.455844 63.0121933,709.560414 63.0121933,708.455844 C63.0121933,707.343574 62.1168939,706.455844 61.012486,706.455844 L47.0121933,706.455844 L47.0121933,692.455551 C47.0121933,691.345737 46.1167628,690.455844 45.0121933,690.455844 C43.899923,690.455844 43.0121933,691.351144 43.0121933,692.455551 L43.0121933,706.455844 Z" id="ic_guanbi" transform="translate(45.455844, 708.455844) rotate(45.000000) translate(-45.455844, -708.455844) "></path>
        </g>
    </g>
</svg>