<?xml version="1.0" encoding="UTF-8"?>
<svg width="40px" height="40px" viewBox="0 0 40 40" version="1.1" xmlns="http://www.w3.org/2000/svg" xmlns:xlink="http://www.w3.org/1999/xlink">
    <!-- Generator: Sketch 46.2 (44496) - http://www.bohemiancoding.com/sketch -->
    <title>ic_rili</title>
    <desc>Created with Sketch.</desc>
    <defs></defs>
    <g id="Page-1" stroke="none" stroke-width="1" fill="none" fill-rule="evenodd">
        <g id="收款明细" transform="translate(-680.000000, -530.000000)" fill-rule="nonzero" fill="#6F7378">
            <g id="2" transform="translate(0.000000, 500.000000)">
                <g id="ic_rili" transform="translate(680.000000, 30.000000)">
                    <path d="M36.2790698,1 L31.627907,1 L31.627907,3.3381295 L36.2790698,3.3381295 C37.0465116,3.3381295 37.6744186,3.96942446 37.6744186,4.74100719 L37.6744186,10.6097122 L2.3255814,10.6097122 L2.3255814,4.74100719 C2.3255814,3.96942446 2.95348837,3.3381295 3.72093023,3.3381295 L8.37209302,3.3381295 L8.37209302,1 L3.72093023,1 C1.6744186,1 0,2.68345324 0,4.74100719 L0,36.2589928 C0,38.3165468 1.6744186,40 3.72093023,40 L36.2790698,40 C38.3255814,40 40,38.3165468 40,36.2589928 L40,4.74100719 C40,2.68345324 38.3255814,1 36.2790698,1 Z M36.2790698,37.6618705 L3.72093023,37.6618705 C2.95348837,37.6618705 2.3255814,37.0305755 2.3255814,36.2589928 L2.3255814,12.9478417 L37.6744186,12.9478417 L37.6744186,36.2589928 C37.6744186,37.0305755 37.0465116,37.6618705 36.2790698,37.6618705 Z M8,20 C7.44771525,20 7,20.4477153 7,21 C7,21.5522847 7.44771525,22 8,22 L12,22 C12.5522847,22 13,21.5522847 13,21 C13,20.4477153 12.5522847,20 12,20 L8,20 Z M18,20 C17.4477153,20 17,20.4477153 17,21 C17,21.5522847 17.4477153,22 18,22 L22,22 C22.5522847,22 23,21.5522847 23,21 C23,20.4477153 22.5522847,20 22,20 L18,20 Z M28,20 C27.4477153,20 27,20.4477153 27,21 C27,21.5522847 27.4477153,22 28,22 L32,22 C32.5522847,22 33,21.5522847 33,21 C33,20.4477153 32.5522847,20 32,20 L28,20 Z M8,28 C7.44771525,28 7,28.4477153 7,29 C7,29.5522847 7.44771525,30 8,30 L12,30 C12.5522847,30 13,29.5522847 13,29 C13,28.4477153 12.5522847,28 12,28 L8,28 Z M18,28 C17.4477153,28 17,28.4477153 17,29 C17,29.5522847 17.4477153,30 18,30 L22,30 C22.5522847,30 23,29.5522847 23,29 C23,28.4477153 22.5522847,28 22,28 L18,28 Z M28,28 C27.4477153,28 27,28.4477153 27,29 C27,29.5522847 27.4477153,30 28,30 L32,30 C32.5522847,30 33,29.5522847 33,29 C33,28.4477153 32.5522847,28 32,28 L28,28 Z" id="Shape"></path>
                    <path d="M12.8018141,5.99090909 C13.4519728,5.99090909 13.9628118,5.47890909 13.9628118,4.82727273 L13.9628118,1.17345455 C13.9628118,0.521818182 13.4519728,0.00981818182 12.8018141,0.00981818182 C12.1516553,0.00981818182 11.6408163,0.521818182 11.6408163,1.17345455 L11.6408163,4.82727273 C11.6408163,5.47890909 12.1748753,5.99090909 12.8018141,5.99090909 L12.8018141,5.99090909 Z M20,5.99090909 C20.6501587,5.99090909 21.1609977,5.47890909 21.1609977,4.82727273 L21.1609977,1.17345455 C21.1609977,0.521818182 20.6501587,0.00981818182 20,0.00981818182 C19.3498413,0.00981818182 18.8390023,0.521818182 18.8390023,1.17345455 L18.8390023,4.82727273 C18.8390023,5.47890909 19.3498413,5.99090909 20,5.99090909 L20,5.99090909 Z M27.1981859,5.99090909 C27.8483447,5.99090909 28.3591837,5.47890909 28.3591837,4.82727273 L28.3591837,1.17345455 C28.3591837,0.521818182 27.8483447,0.00981818182 27.1981859,0.00981818182 C26.5480272,0.00981818182 26.0371882,0.521818182 26.0371882,1.17345455 L26.0371882,4.82727273 C26.0371882,5.47890909 26.5480272,5.99090909 27.1981859,5.99090909 L27.1981859,5.99090909 Z" id="Shape"></path>
                </g>
            </g>
        </g>
    </g>
</svg>