<?xml version="1.0" encoding="UTF-8"?>
<svg width="120px" height="120px" viewBox="0 0 120 120" version="1.1" xmlns="http://www.w3.org/2000/svg" xmlns:xlink="http://www.w3.org/1999/xlink">
    <!-- Generator: Sketch 46.2 (44496) - http://www.bohemiancoding.com/sketch -->
    <title>Group</title>
    <desc>Created with Sketch.</desc>
    <defs></defs>
    <g id="Page-1" stroke="none" stroke-width="1" fill="none" fill-rule="evenodd">
        <g id="收款失败" transform="translate(-315.000000, -238.000000)">
            <g id="Group" transform="translate(315.000000, 238.000000)">
                <g id="大图标/警告">
                    <g>
                        <path d="M120,60.7407407 C120,26.8622222 93.1377778,0 59.2592593,0 C26.8622222,0 0,26.8622222 0,60.7407407 C0,93.1377778 26.8622222,120 59.2592593,120 C93.1377778,120 120,93.1377778 120,60.7407407 Z" id="Fill-" fill="#F76260"></path>
                        <path d="M57.4884218,32.2580645 L62.5115782,32.2580645 C63.6170603,32.2580645 64.4831653,33.1504964 64.4425025,34.2513669 L63.0479644,72.0059351 C63.0271457,72.5695642 62.5655764,73.0133753 62.0164235,73.0133753 L57.9835765,73.0133753 C57.4418389,73.0133753 56.972587,72.5623289 56.9520356,72.0059351 L55.5574975,34.2513669 C55.5167129,33.1471994 56.3813389,32.2580645 57.4884218,32.2580645 Z M60,87.7419355 C57.5058108,87.7419355 55.483871,85.7199956 55.483871,83.2258065 C55.483871,80.7316173 57.5058108,78.7096774 60,78.7096774 C62.4941892,78.7096774 64.516129,80.7316173 64.516129,83.2258065 C64.516129,85.7199956 62.4941892,87.7419355 60,87.7419355 Z" id="Path-" fill="#FFFFFF"></path>
                    </g>
                </g>
            </g>
        </g>
    </g>
</svg>