<?xml version="1.0" encoding="UTF-8"?>
<svg width="40px" height="40px" viewBox="0 0 40 40" version="1.1" xmlns="http://www.w3.org/2000/svg" xmlns:xlink="http://www.w3.org/1999/xlink">
    <!-- Generator: Sketch 46.2 (44496) - http://www.bohemiancoding.com/sketch -->
    <title>二维码 (2)</title>
    <desc>Created with Sketch.</desc>
    <defs></defs>
    <g id="Page-1" stroke="none" stroke-width="1" fill="none" fill-rule="evenodd">
        <g id="微信二维码收款" transform="translate(-70.000000, -196.000000)" fill-rule="nonzero" fill="#888888">
            <g id="Group" transform="translate(40.000000, 168.000000)">
                <g id="二维码-(2)" transform="translate(30.000000, 28.000000)">
                    <path d="M0.0346859903,0.0346859903 L0.0346859903,15.5078261 L14.5095169,15.5078261 L14.5095169,0.0346859903 L0.0346859903,0.0346859903 Z M12.26343,13.2617874 L2.28077295,13.2617874 L2.28077295,2.28086957 L12.26343,2.28086957 L12.26343,13.2617874 Z" id="Shape"></path>
                    <path d="M25.4904348,0.0346859903 L25.4904348,15.5078261 L39.9652657,15.5078261 L39.9652657,0.0346859903 L25.4904348,0.0346859903 Z M37.7192271,13.2617391 L27.73657,13.2617391 L27.73657,2.28082126 L37.7192271,2.28082126 L37.7192271,13.2617391 Z" id="Shape"></path>
                    <path d="M0.0346859903,24.4922222 L0.0346859903,39.9653623 L14.5095169,39.9653623 L14.5095169,24.4922222 L0.0346859903,24.4922222 Z M12.26343,37.7192271 L2.28077295,37.7192271 L2.28077295,26.7383092 L12.26343,26.7383092 L12.26343,37.7192271 Z" id="Shape"></path>
                    <polygon id="Shape" points="0.0346859903 19.0017391 7.77125604 19.0017391 7.77125604 21.2478261 0.0346859903 21.2478261"></polygon>
                    <polygon id="Shape" points="32.2286957 19.0017391 39.9652657 19.0017391 39.9652657 21.2478261 32.2286957 21.2478261"></polygon>
                    <polygon id="Shape" points="19.0017391 12.26343 19.0017391 19.0016908 13.2616908 19.0016908 13.2616908 20.9982609 19.0017391 20.9982609 19.0017391 26.7383092 20.9983092 26.7383092 20.9983092 12.2634783"></polygon>
                    <polygon id="Shape" points="19.0832367 1.66381643 21.1460386 1.66381643 21.1460386 7.85227053 19.0832367 7.85227053 19.0832367 1.66381643"></polygon>
                    <polygon id="Shape" points="19.0017391 33.2270531 21.2478261 33.2270531 21.2478261 39.965314 19.0017391 39.965314"></polygon>
                    <polygon id="Shape" points="37.7192271 24.4922222 37.7192271 37.7192754 25.4905314 37.7192754 25.4905314 39.9653623 39.9653623 39.9653623 39.9653623 24.4922222"></polygon>
                    <polygon id="Shape" points="33.2270531 24.4922222 25.4904831 24.4922222 25.4904831 32.2287923 27.73657 32.2287923 27.73657 26.7383575 33.2270048 26.7383575"></polygon>
                </g>
            </g>
        </g>
    </g>
</svg>