<?xml version="1.0" encoding="UTF-8"?>
<svg width="40px" height="40px" viewBox="0 0 40 40" version="1.1" xmlns="http://www.w3.org/2000/svg" xmlns:xlink="http://www.w3.org/1999/xlink">
    <!-- Generator: Sketch 46.2 (44496) - http://www.bohemiancoding.com/sketch -->
    <title>ic_saoyisao</title>
    <desc>Created with Sketch.</desc>
    <defs></defs>
    <g id="Page-1" stroke="none" stroke-width="1" fill="none" fill-rule="evenodd">
        <g id="微信二维码收款" transform="translate(-72.000000, -998.000000)" fill="#FFFFFF">
            <g id="Group-7" transform="translate(40.000000, 968.000000)">
                <g id="ic_saoyisao" transform="translate(32.000000, 30.000000)">
                    <rect id="Rectangle-13" x="0" y="19" width="40" height="2"></rect>
                    <path d="M1,0 L12,0 L12,2 L2,2 L2,12 L4.4408921e-16,12 L2.66453526e-15,-3.6739404e-16 L1,-1.8369702e-16 Z" id="Combined-Shape"></path>
                    <path d="M29,0 L40,0 L40,2 L30,2 L30,12 L28,12 L28,-3.6739404e-16 L29,-1.8369702e-16 Z" id="Combined-Shape-Copy" transform="translate(34.000000, 6.000000) scale(-1, 1) translate(-34.000000, -6.000000) "></path>
                    <path d="M1,28 L12,28 L12,30 L2,30 L2,40 L4.4408921e-16,40 L2.66453526e-15,28 L1,28 Z" id="Combined-Shape" transform="translate(6.000000, 34.000000) scale(1, -1) translate(-6.000000, -34.000000) "></path>
                    <path d="M29,28 L40,28 L40,30 L30,30 L30,40 L28,40 L28,28 L29,28 Z" id="Combined-Shape-Copy-2" transform="translate(34.000000, 34.000000) scale(-1, -1) translate(-34.000000, -34.000000) "></path>
                </g>
            </g>
        </g>
    </g>
</svg>