<?xml version="1.0" encoding="UTF-8"?>
<svg width="120px" height="120px" viewBox="0 0 120 120" version="1.1" xmlns="http://www.w3.org/2000/svg" xmlns:xlink="http://www.w3.org/1999/xlink">
    <!-- Generator: Sketch 46.2 (44496) - http://www.bohemiancoding.com/sketch -->
    <title>Group 8</title>
    <desc>Created with Sketch.</desc>
    <defs></defs>
    <g id="Page-1" stroke="none" stroke-width="1" fill="none" fill-rule="evenodd">
        <g id="收款成功" transform="translate(-315.000000, -231.000000)">
            <g id="Group-8" transform="translate(315.000000, 231.000000)">
                <path d="M120,60.7407407 C120,26.8622222 93.1377778,0 59.2592593,0 C26.8622222,0 0,26.8622222 0,60.7407407 C0,93.1377778 26.8622222,120 59.2592593,120 C93.1377778,120 120,93.1377778 120,60.7407407 Z" id="Fill-" fill="#40B23C"></path>
                <path d="M30.7782373,64.2113202 C30.3938248,63.8134724 30.3431039,63.135942 30.6710449,62.689719 L32.9645854,59.5689424 C33.2897971,59.1264331 33.9105011,59.0413804 34.3437075,59.3734082 L49.858852,71.2648766 C50.2953084,71.5993954 50.9958677,71.5817127 51.4145347,71.2329292 L89.992363,39.0944781 C90.4150865,38.7423152 91.0781152,38.7732011 91.4686044,39.158847 L93.5181751,41.1829962 C93.9107572,41.570709 93.9032691,42.205588 93.5178947,42.584854 L51.3589618,84.0755413 C50.9662248,84.4620532 50.34117,84.4579858 49.9518083,84.0550157 L30.7782373,64.2113202 Z" id="Fill-" fill="#FFFFFF"></path>
            </g>
        </g>
    </g>
</svg>