<?xml version="1.0" standalone="no"?><!DOCTYPE svg PUBLIC "-//W3C//DTD SVG 1.1//EN" "http://www.w3.org/Graphics/SVG/1.1/DTD/svg11.dtd"><svg t="1524649729174" class="icon" style="" viewBox="0 0 1024 1024" version="1.1" xmlns="http://www.w3.org/2000/svg" p-id="9472" xmlns:xlink="http://www.w3.org/1999/xlink" width="64" height="64"><defs><style type="text/css"></style></defs><path d="M819.057629 645.954349l-62.937128 0 0 62.999554 62.937128 0L819.057629 645.954349zM819.057629 771.829612l-62.937128 0 0 62.999554 62.937128 0L819.057629 771.829612zM630.244232 520.078079l-62.938135 0 0 63.00056 62.938135 0L630.244232 520.078079zM630.244232 79.389305 378.494713 79.389305l0 62.938135 251.749519 0L630.244232 79.389305zM284.333689 204.435918c17.270758 0 31.16147-18.747829 31.16147-41.857399L315.495159 58.24715c0-23.048151-13.890712-41.794973-31.16147-41.794973-17.146914 0-31.099044 18.746823-31.099044 41.794973l0 104.332376C253.234645 185.689095 267.186775 204.435918 284.333689 204.435918M724.90164 204.435918c17.576845 0 31.832042-18.747829 31.832042-41.857399L756.733682 58.24715c0-23.048151-14.255197-41.794973-31.832042-41.794973-17.58188 0-31.838083 18.746823-31.838083 41.794973l0 104.332376C693.063556 185.689095 707.31976 204.435918 724.90164 204.435918M630.244232 645.954349l-62.938135 0 0 62.999554 62.938135 0L630.244232 645.954349zM819.057629 520.078079l-62.937128 0 0 63.00056 62.937128 0L819.057629 520.078079zM252.618443 771.829612l-62.939142 0 0 63.058959 62.939142 0L252.618443 771.829612zM252.618443 645.954349l-62.939142 0 0 62.999554 62.939142 0L252.618443 645.954349zM944.932892 79.389305 819.057629 79.389305l0 62.938135 125.87627 0 0 188.815411L63.805046 331.142851 63.805046 142.32744l125.875263 0L189.680309 79.389305 63.805046 79.389305c-65.271041 0-62.938135 64.567243-62.938135 62.938135l0 818.192732c0 61.277814 60.604221 62.938135 62.938135 62.938135l881.128853 0c57.406418 0 62.937128-60.601201 62.937128-62.938135L1007.871027 142.32744C1007.87002 138.057324 1006.21272 79.389305 944.932892 79.389305M944.932892 960.520172 63.805046 960.520172 63.805046 394.080986l881.128853 0L944.933899 960.520172zM630.244232 771.829612l-62.938135 0 0 63.058959 62.938135 0L630.244232 771.829612zM441.433855 645.954349l-62.939142 0 0 62.999554 62.939142 0L441.433855 645.954349zM441.433855 520.078079l-62.939142 0 0 63.00056 62.939142 0L441.433855 520.078079zM441.433855 771.829612l-62.939142 0 0 63.058959 62.939142 0L441.433855 771.829612zM252.618443 520.078079l-62.939142 0 0 63.00056 62.939142 0L252.618443 520.078079z" p-id="9473" fill="#006fff"></path></svg>